<svg xmlns="http://www.w3.org/2000/svg" width="448" height="316" role="img" aria-label="Best QWK by language">
<rect width="100%" height="100%" fill="#ffffff"/>
<text x="16" y="28" font-family="Arial,sans-serif" font-size="18" font-weight="bold" fill="#111827">Best QWK by Language</text>
<line x1="56" y1="48" x2="56" y2="268" stroke="#9ca3af"/>
<line x1="56" y1="268" x2="432" y2="268" stroke="#9ca3af"/>
<line x1="56" y1="268.0" x2="432" y2="268.0" stroke="#e5e7eb"/>
<text x="48" y="272.0" font-family="Arial,sans-serif" font-size="10" text-anchor="end" fill="#6b7280">0.0</text>
<line x1="56" y1="224.0" x2="432" y2="224.0" stroke="#e5e7eb"/>
<text x="48" y="228.0" font-family="Arial,sans-serif" font-size="10" text-anchor="end" fill="#6b7280">0.2</text>
<line x1="56" y1="180.0" x2="432" y2="180.0" stroke="#e5e7eb"/>
<text x="48" y="184.0" font-family="Arial,sans-serif" font-size="10" text-anchor="end" fill="#6b7280">0.4</text>
<line x1="56" y1="136.0" x2="432" y2="136.0" stroke="#e5e7eb"/>
<text x="48" y="140.0" font-family="Arial,sans-serif" font-size="10" text-anchor="end" fill="#6b7280">0.6</text>
<line x1="56" y1="92.0" x2="432" y2="92.0" stroke="#e5e7eb"/>
<text x="48" y="96.0" font-family="Arial,sans-serif" font-size="10" text-anchor="end" fill="#6b7280">0.8</text>
<line x1="56" y1="48.0" x2="432" y2="48.0" stroke="#e5e7eb"/>
<text x="48" y="52.0" font-family="Arial,sans-serif" font-size="10" text-anchor="end" fill="#6b7280">1.0</text>
<rect x="70" y="114.0803" width="44" height="153.9197" rx="6" fill="rgb(144,155,116)"/>
<text x="92" y="108.0803" font-family="Arial,sans-serif" font-size="11" text-anchor="middle" fill="#111827">0.700</text>
<text x="92" y="286" font-family="Arial,sans-serif" font-size="11" text-anchor="middle" fill="#111827">EN</text>
<text x="92" y="300" font-family="Arial,sans-serif" font-size="10" text-anchor="middle" fill="#6b7280">Exp 7</text>
<rect x="142" y="78.54326" width="44" height="189.45674" rx="6" fill="rgb(122,175,128)"/>
<text x="164" y="72.54326" font-family="Arial,sans-serif" font-size="11" text-anchor="middle" fill="#111827">0.861</text>
<text x="164" y="286" font-family="Arial,sans-serif" font-size="11" text-anchor="middle" fill="#111827">ES</text>
<text x="164" y="300" font-family="Arial,sans-serif" font-size="10" text-anchor="middle" fill="#6b7280">Exp 7</text>
<rect x="214" y="111.87106" width="44" height="156.12894" rx="6" fill="rgb(143,156,117)"/>
<text x="236" y="105.87106" font-family="Arial,sans-serif" font-size="11" text-anchor="middle" fill="#111827">0.710</text>
<text x="236" y="286" font-family="Arial,sans-serif" font-size="11" text-anchor="middle" fill="#111827">FR</text>
<text x="236" y="300" font-family="Arial,sans-serif" font-size="10" text-anchor="middle" fill="#6b7280">Exp 10</text>
<rect x="286" y="66.28551999999999" width="44" height="201.71448" rx="6" fill="rgb(115,182,132)"/>
<text x="308" y="60.28551999999999" font-family="Arial,sans-serif" font-size="11" text-anchor="middle" fill="#111827">0.917</text>
<text x="308" y="286" font-family="Arial,sans-serif" font-size="11" text-anchor="middle" fill="#111827">GLOBAL</text>
<text x="308" y="300" font-family="Arial,sans-serif" font-size="10" text-anchor="middle" fill="#6b7280">Exp 6</text>
<rect x="358" y="122.05222" width="44" height="145.94778" rx="6" fill="rgb(149,150,114)"/>
<text x="380" y="116.05222" font-family="Arial,sans-serif" font-size="11" text-anchor="middle" fill="#111827">0.663</text>
<text x="380" y="286" font-family="Arial,sans-serif" font-size="11" text-anchor="middle" fill="#111827">RU</text>
<text x="380" y="300" font-family="Arial,sans-serif" font-size="10" text-anchor="middle" fill="#6b7280">Exp 7</text>
</svg>